<svg xmlns="http://www.w3.org/2000/svg" viewBox="0 0 200 300" width="100%" height="100%">
  <!-- Left Fin -->
  <path d="M 50 200 Q 20 250 20 280 L 70 260 Z" fill="#b0bec5"/>
  <!-- Right Fin -->
  <path d="M 150 200 Q 180 250 180 280 L 130 260 Z" fill="#b0bec5"/>
  <!-- Center Fin -->
  <path d="M 90 230 L 100 280 L 110 230 Z" fill="#90a4ae"/>
  
  <!-- Main Body -->
  <path d="M 100 20 C 100 20, 50 100, 50 240 L 150 240 C 150 100, 100 20, 100 20 Z" fill="#eceff1"/>
  <path d="M 100 20 C 100 20, 150 100, 150 240 L 100 240 Z" fill="#cfd8dc"/>
  
  <!-- Nose Cone -->
  <path d="M 100 20 C 100 20, 75 60, 68 90 L 132 90 C 125 60, 100 20, 100 20 Z" fill="#ff5252"/>
  
  <!-- Window Outer -->
  <circle cx="100" cy="130" r="25" fill="#90a4ae"/>
  <!-- Window Inner -->
  <circle cx="100" cy="130" r="18" fill="#4fc3f7"/>
  <!-- Window reflection -->
  <path d="M 90 120 Q 100 115 110 120 Q 105 125 90 120 Z" fill="#e1f5fe"/>
  
  <!-- Engine Nozzle -->
  <path d="M 70 240 L 130 240 L 120 260 L 80 260 Z" fill="#546e7a"/>
</svg>
